<mxfile host="65bd71144e">
    <diagram id="hmT6kRHPboXL5VRMb9j5" name="Page-1">
        <mxGraphModel dx="1140" dy="756" grid="1" gridSize="10" guides="1" tooltips="1" connect="1" arrows="1" fold="1" page="1" pageScale="1" pageWidth="850" pageHeight="1100" math="0" shadow="0">
            <root>
                <mxCell id="0"/>
                <mxCell id="1" parent="0"/>
                <mxCell id="2" value="TCP" style="rounded=1;whiteSpace=wrap;html=1;fillColor=#dae8fc;strokeColor=#6c8ebf;" vertex="1" parent="1">
                    <mxGeometry x="360" y="510" width="130" height="40" as="geometry"/>
                </mxCell>
                <mxCell id="3" value="UDP" style="rounded=1;whiteSpace=wrap;html=1;fillColor=#dae8fc;strokeColor=#6c8ebf;" vertex="1" parent="1">
                    <mxGeometry x="510" y="510" width="130" height="40" as="geometry"/>
                </mxCell>
                <mxCell id="4" value="TLS" style="rounded=1;whiteSpace=wrap;html=1;fillColor=#dae8fc;strokeColor=#6c8ebf;" vertex="1" parent="1">
                    <mxGeometry x="360" y="460" width="60" height="40" as="geometry"/>
                </mxCell>
                <mxCell id="5" value="HTTP 1.1 / 2" style="rounded=1;whiteSpace=wrap;html=1;fillColor=#dae8fc;strokeColor=#6c8ebf;" vertex="1" parent="1">
                    <mxGeometry x="360" y="410" width="130" height="40" as="geometry"/>
                </mxCell>
                <mxCell id="7" value="IP" style="rounded=1;whiteSpace=wrap;html=1;fillColor=#dae8fc;strokeColor=#6c8ebf;" vertex="1" parent="1">
                    <mxGeometry x="360" y="560" width="280" height="40" as="geometry"/>
                </mxCell>
                <mxCell id="9" value="HTTP 3" style="rounded=1;whiteSpace=wrap;html=1;fillColor=#dae8fc;strokeColor=#6c8ebf;" vertex="1" parent="1">
                    <mxGeometry x="510" y="410" width="60" height="40" as="geometry"/>
                </mxCell>
                <mxCell id="10" value="QUIC" style="rounded=1;whiteSpace=wrap;html=1;fillColor=#dae8fc;strokeColor=#6c8ebf;" vertex="1" parent="1">
                    <mxGeometry x="510" y="460" width="60" height="40" as="geometry"/>
                </mxCell>
                <mxCell id="14" value="SOAP, REST, gRPC, GraphQL, etc..." style="rounded=1;whiteSpace=wrap;html=1;fillColor=#dae8fc;strokeColor=#6c8ebf;" vertex="1" parent="1">
                    <mxGeometry x="360" y="360" width="280" height="40" as="geometry"/>
                </mxCell>
                <mxCell id="15" value="DTLS" style="rounded=1;whiteSpace=wrap;html=1;fillColor=#dae8fc;strokeColor=#6c8ebf;" vertex="1" parent="1">
                    <mxGeometry x="580" y="460" width="60" height="40" as="geometry"/>
                </mxCell>
                <mxCell id="17" value="Gockpit project scope." style="text;html=1;strokeColor=none;fillColor=none;align=center;verticalAlign=middle;whiteSpace=wrap;rounded=0;fontStyle=1;fontColor=#CC0000;" vertex="1" parent="1">
                    <mxGeometry x="290" y="600" width="100" height="30" as="geometry"/>
                </mxCell>
                <mxCell id="18" value="Framework logics" style="rounded=1;whiteSpace=wrap;html=1;" vertex="1" parent="1">
                    <mxGeometry x="360" y="310" width="280" height="40" as="geometry"/>
                </mxCell>
                <mxCell id="19" value="Bussiness logics" style="rounded=1;whiteSpace=wrap;html=1;" vertex="1" parent="1">
                    <mxGeometry x="360" y="240" width="280" height="60" as="geometry"/>
                </mxCell>
                <mxCell id="21" value="" style="endArrow=classic;html=1;strokeWidth=2;endFill=1;startArrow=classic;startFill=1;fillColor=#f8cecc;strokeColor=#b85450;" edge="1" parent="1">
                    <mxGeometry width="50" height="50" relative="1" as="geometry">
                        <mxPoint x="340" y="600" as="sourcePoint"/>
                        <mxPoint x="340" y="270" as="targetPoint"/>
                    </mxGeometry>
                </mxCell>
                <mxCell id="27" value="Reusable middleware/tripperware&lt;br&gt;DataBase etc..." style="rounded=1;whiteSpace=wrap;html=1;align=center;fontSize=10;fillColor=#f5f5f5;fontColor=#333333;strokeColor=#666666;" vertex="1" parent="1">
                    <mxGeometry x="160" y="260" width="160" height="40" as="geometry"/>
                </mxCell>
                <mxCell id="29" value="Dependency injection.&lt;br style=&quot;font-size: 10px;&quot;&gt;Configuration.&lt;br style=&quot;font-size: 10px;&quot;&gt;etc ..." style="rounded=1;whiteSpace=wrap;html=1;align=center;fontSize=10;fillColor=#f5f5f5;fontColor=#333333;strokeColor=#666666;" vertex="1" parent="1">
                    <mxGeometry x="160" y="310" width="160" height="40" as="geometry"/>
                </mxCell>
                <mxCell id="30" value="Server&lt;br&gt;Client&lt;br&gt;Proxy&lt;br&gt;Security&lt;br&gt;etc..." style="rounded=1;whiteSpace=wrap;html=1;align=center;fontSize=10;arcSize=6;fillColor=#f5f5f5;fontColor=#333333;strokeColor=#666666;" vertex="1" parent="1">
                    <mxGeometry x="160" y="360" width="160" height="240" as="geometry"/>
                </mxCell>
            </root>
        </mxGraphModel>
    </diagram>
</mxfile>